  0
SECTION
  2
HEADER
  9
$ACADVER
  1
AC2.10
  0
ENDSEC
  0
SECTION
  2
TABLES
  0
TABLE
  2
LAYER
 70
     8
  0
LAYER
  2
0
 62
     7
 70
0
  6
CONTINUOUS
  0
LAYER
  2
1
 62
     1
 70
0
  6
CONTINUOUS
  0
LAYER
  2
2
 62
     2
 70
0
  6
CONTINUOUS
  0
LAYER
  2
3
 62
     3
 70
0
  6
CONTINUOUS
  0
LAYER
  2
4
 62
     4
 70
0
  6
CONTINUOUS
  0
LAYER
  2
5
 62
     5
 70
0
  6
CONTINUOUS
  0
LAYER
  2
6
 62
     6
 70
0
  6
CONTINUOUS
  0
LAYER
  2
7
 62
     7
 70
0
  6
CONTINUOUS
  0
ENDTAB
  0
TABLE
  2
STYLE
 70
     1
  0
STYLE
 70
     0
  2
STANDARD
  3
TXT
 40
0.00
 41
1.00
 42
1.00
 50
0.00
 71
     0
  0
ENDTAB
  0
ENDSEC
  0
SECTION
  2
BLOCKS
  0
BLOCK
  8
0
  2
EPAD
 70
0
 10
0.0
 20
0.0
  0
POLYLINE
  8
0
 66
1
 70
1
 40
0.5
 41
0.5
  0
VERTEX
  8
0
 10
-0.25
 20
0.0
 42
1.0
  0
VERTEX
  8
0
 10
0.25
 20
0.0
 42
1.0
  0
SEQEND
  8
0
  0
ENDBLK
  8
0
  0
BLOCK
  8
0
  2
RPAD
 70
0
 10
0.0
 20
0.0
  0
TRACE
  8
0
 10
-0.5
 20
-0.5
 11
-0.5
 21
0.5
 12
0.5
 22
-0.5
 13
0.5
 23
0.5
  0
ENDBLK
  8
0
  0
ENDSEC
0
SECTION
2
ENTITIES
0
INSERT
8
0
2
EPAD
10
0.828000
20
1.409000
41
0.080000
42
0.080000
0
CIRCLE
8
0
10
0.828000
20
1.409000
40
0.025000
0
INSERT
8
0
2
EPAD
10
0.728000
20
1.409000
41
0.080000
42
0.080000
0
CIRCLE
8
0
10
0.728000
20
1.409000
40
0.025000
0
INSERT
8
0
2
EPAD
10
0.458000
20
1.409000
41
0.080000
42
0.080000
0
CIRCLE
8
0
10
0.458000
20
1.409000
40
0.025000
0
INSERT
8
0
2
EPAD
10
0.358000
20
1.409000
41
0.080000
42
0.080000
0
CIRCLE
8
0
10
0.358000
20
1.409000
40
0.025000
0
INSERT
8
0
2
EPAD
10
0.090000
20
1.421000
41
0.080000
42
0.080000
0
CIRCLE
8
0
10
0.090000
20
1.421000
40
0.025000
0
INSERT
8
0
2
EPAD
10
-0.009000
20
1.421000
41
0.080000
42
0.080000
0
CIRCLE
8
0
10
-0.009000
20
1.421000
40
0.025000
0
INSERT
8
0
2
EPAD
10
-0.291000
20
1.409000
41
0.080000
42
0.080000
0
CIRCLE
8
0
10
-0.291000
20
1.409000
40
0.025000
0
INSERT
8
0
2
EPAD
10
-0.391000
20
1.409000
41
0.080000
42
0.080000
0
CIRCLE
8
0
10
-0.391000
20
1.409000
40
0.025000
0
INSERT
8
0
2
EPAD
10
-0.646000
20
1.409000
41
0.080000
42
0.080000
0
CIRCLE
8
0
10
-0.646000
20
1.409000
40
0.025000
0
INSERT
8
0
2
EPAD
10
-0.746000
20
1.409000
41
0.080000
42
0.080000
0
CIRCLE
8
0
10
-0.746000
20
1.409000
40
0.025000
0
INSERT
8
0
2
EPAD
10
0.348000
20
0.858000
41
0.080000
42
0.080000
0
CIRCLE
8
0
10
0.348000
20
0.858000
40
0.010000
0
INSERT
8
0
2
EPAD
10
0.248000
20
0.858000
41
0.080000
42
0.080000
0
CIRCLE
8
0
10
0.248000
20
0.858000
40
0.010000
0
INSERT
8
0
2
EPAD
10
0.148000
20
0.858000
41
0.080000
42
0.080000
0
CIRCLE
8
0
10
0.148000
20
0.858000
40
0.010000
0
INSERT
8
0
2
EPAD
10
0.048000
20
0.858000
41
0.080000
42
0.080000
0
CIRCLE
8
0
10
0.048000
20
0.858000
40
0.010000
0
INSERT
8
0
2
EPAD
10
-0.051000
20
0.858000
41
0.080000
42
0.080000
0
CIRCLE
8
0
10
-0.051000
20
0.858000
40
0.010000
0
INSERT
8
0
2
EPAD
10
-0.151000
20
0.858000
41
0.080000
42
0.080000
0
CIRCLE
8
0
10
-0.151000
20
0.858000
40
0.010000
0
INSERT
8
0
2
EPAD
10
-0.251000
20
0.858000
41
0.080000
42
0.080000
0
CIRCLE
8
0
10
-0.251000
20
0.858000
40
0.010000
0
INSERT
8
0
2
EPAD
10
0.411000
20
1.244000
41
0.090000
42
0.090000
0
CIRCLE
8
0
10
0.411000
20
1.244000
40
0.025000
0
INSERT
8
0
2
EPAD
10
0.411000
20
1.106000
41
0.090000
42
0.090000
0
CIRCLE
8
0
10
0.411000
20
1.106000
40
0.025000
0
INSERT
8
0
2
EPAD
10
0.041000
20
1.248000
41
0.090000
42
0.090000
0
CIRCLE
8
0
10
0.041000
20
1.248000
40
0.025000
0
INSERT
8
0
2
EPAD
10
0.041000
20
1.110000
41
0.090000
42
0.090000
0
CIRCLE
8
0
10
0.041000
20
1.110000
40
0.025000
0
INSERT
8
0
2
EPAD
10
-0.336000
20
1.244000
41
0.090000
42
0.090000
0
CIRCLE
8
0
10
-0.336000
20
1.244000
40
0.025000
0
INSERT
8
0
2
EPAD
10
-0.336000
20
1.106000
41
0.090000
42
0.090000
0
CIRCLE
8
0
10
-0.336000
20
1.106000
40
0.025000
0
INSERT
8
0
2
EPAD
10
-0.698000
20
1.248000
41
0.090000
42
0.090000
0
CIRCLE
8
0
10
-0.698000
20
1.248000
40
0.025000
0
INSERT
8
0
2
EPAD
10
-0.698000
20
1.110000
41
0.090000
42
0.090000
0
CIRCLE
8
0
10
-0.698000
20
1.110000
40
0.025000
0
INSERT
8
0
2
EPAD
10
0.785000
20
1.248000
41
0.090000
42
0.090000
0
CIRCLE
8
0
10
0.785000
20
1.248000
40
0.025000
0
INSERT
8
0
2
EPAD
10
0.785000
20
1.110000
41
0.090000
42
0.090000
0
CIRCLE
8
0
10
0.785000
20
1.110000
40
0.025000
0
INSERT
8
0
2
EPAD
10
-1.116000
20
1.472000
41
0.120000
42
0.120000
0
CIRCLE
8
0
10
-1.116000
20
1.472000
40
0.030000
0
INSERT
8
0
2
EPAD
10
-1.116000
20
0.767000
41
0.120000
42
0.120000
0
CIRCLE
8
0
10
-1.116000
20
0.767000
40
0.030000
0
INSERT
8
0
2
EPAD
10
1.100000
20
1.476000
41
0.120000
42
0.120000
0
CIRCLE
8
0
10
1.100000
20
1.476000
40
0.030000
0
INSERT
8
0
2
EPAD
10
1.108000
20
0.767000
41
0.120000
42
0.120000
0
CIRCLE
8
0
10
1.108000
20
0.767000
40
0.030000
0
CIRCLE
8
12632256
10
0.778000
20
1.409000
40
0.100000
0
POLYLINE
8
0
66
1
40
0.008000
41
0.008000
0
VERTEX
8
0
10
0.853000
20
1.359000
0
VERTEX
8
0
10
0.803000
20
1.359000
0
SEQEND
8
0
0
POLYLINE
8
0
66
1
40
0.008000
41
0.008000
0
VERTEX
8
0
10
0.828000
20
1.334000
0
VERTEX
8
0
10
0.828000
20
1.384000
0
SEQEND
8
0
0
TEXT
8
12632256
10
0.728000
20
1.251000
40
0.048000
41
1.041667
1
C1
0
CIRCLE
8
12632256
10
0.408000
20
1.409000
40
0.100000
0
POLYLINE
8
0
66
1
40
0.008000
41
0.008000
0
VERTEX
8
0
10
0.483000
20
1.359000
0
VERTEX
8
0
10
0.433000
20
1.359000
0
SEQEND
8
0
0
POLYLINE
8
0
66
1
40
0.008000
41
0.008000
0
VERTEX
8
0
10
0.458000
20
1.334000
0
VERTEX
8
0
10
0.458000
20
1.384000
0
SEQEND
8
0
0
TEXT
8
12632256
10
0.358000
20
1.251000
40
0.048000
41
1.041667
1
C2
0
CIRCLE
8
12632256
10
0.040000
20
1.421000
40
0.100000
0
POLYLINE
8
0
66
1
40
0.008000
41
0.008000
0
VERTEX
8
0
10
0.115000
20
1.371000
0
VERTEX
8
0
10
0.065000
20
1.371000
0
SEQEND
8
0
0
POLYLINE
8
0
66
1
40
0.008000
41
0.008000
0
VERTEX
8
0
10
0.090000
20
1.346000
0
VERTEX
8
0
10
0.090000
20
1.396000
0
SEQEND
8
0
0
TEXT
8
12632256
10
-0.009000
20
1.263000
40
0.048000
41
1.041667
1
C3
0
CIRCLE
8
12632256
10
-0.341000
20
1.409000
40
0.100000
0
POLYLINE
8
0
66
1
40
0.008000
41
0.008000
0
VERTEX
8
0
10
-0.266000
20
1.359000
0
VERTEX
8
0
10
-0.316000
20
1.359000
0
SEQEND
8
0
0
POLYLINE
8
0
66
1
40
0.008000
41
0.008000
0
VERTEX
8
0
10
-0.291000
20
1.334000
0
VERTEX
8
0
10
-0.291000
20
1.384000
0
SEQEND
8
0
0
TEXT
8
12632256
10
-0.391000
20
1.251000
40
0.048000
41
1.041667
1
C4
0
CIRCLE
8
12632256
10
-0.696000
20
1.409000
40
0.100000
0
POLYLINE
8
0
66
1
40
0.008000
41
0.008000
0
VERTEX
8
0
10
-0.621000
20
1.359000
0
VERTEX
8
0
10
-0.671000
20
1.359000
0
SEQEND
8
0
0
POLYLINE
8
0
66
1
40
0.008000
41
0.008000
0
VERTEX
8
0
10
-0.646000
20
1.334000
0
VERTEX
8
0
10
-0.646000
20
1.384000
0
SEQEND
8
0
0
TEXT
8
12632256
10
-0.746000
20
1.251000
40
0.048000
41
1.041667
1
C5
0
POLYLINE
8
0
66
1
40
0.008000
41
0.008000
0
VERTEX
8
0
10
-0.351000
20
0.708000
0
VERTEX
8
0
10
0.448000
20
0.708000
0
VERTEX
8
0
10
0.448000
20
0.958000
0
VERTEX
8
0
10
-0.351000
20
0.958000
0
VERTEX
8
0
10
-0.351000
20
0.708000
0
SEQEND
8
0
0
POLYLINE
8
0
66
1
40
0.008000
41
0.008000
0
VERTEX
8
0
10
0.448000
20
0.758000
0
VERTEX
8
0
10
-0.351000
20
0.758000
0
SEQEND
8
0
0
TEXT
8
12632256
10
-0.001000
20
0.650000
40
0.048000
41
1.041667
1
J1
0
POLYLINE
8
0
66
1
40
0.007000
41
0.007000
0
VERTEX
8
0
10
0.545000
20
1.399000
0
VERTEX
8
0
10
0.545000
20
1.438000
0
SEQEND
8
0
0
POLYLINE
8
0
66
1
40
0.007000
41
0.007000
0
VERTEX
8
0
10
0.616000
20
1.399000
0
VERTEX
8
0
10
0.616000
20
1.438000
0
SEQEND
8
0
0
TEXT
8
12632256
10
0.674000
20
1.469000
40
0.048000
41
1.041667
50
90.000000
71
2
1
R1
0
POLYLINE
8
0
66
1
40
0.007000
41
0.007000
0
VERTEX
8
0
10
0.183000
20
1.399000
0
VERTEX
8
0
10
0.183000
20
1.438000
0
SEQEND
8
0
0
POLYLINE
8
0
66
1
40
0.007000
41
0.007000
0
VERTEX
8
0
10
0.253000
20
1.399000
0
VERTEX
8
0
10
0.253000
20
1.438000
0
SEQEND
8
0
0
TEXT
8
12632256
10
0.311000
20
1.469000
40
0.048000
41
1.041667
50
90.000000
71
2
1
R2
0
POLYLINE
8
0
66
1
40
0.007000
41
0.007000
0
VERTEX
8
0
10
-0.187000
20
1.407000
0
VERTEX
8
0
10
-0.187000
20
1.446000
0
SEQEND
8
0
0
POLYLINE
8
0
66
1
40
0.007000
41
0.007000
0
VERTEX
8
0
10
-0.116000
20
1.407000
0
VERTEX
8
0
10
-0.116000
20
1.446000
0
SEQEND
8
0
0
TEXT
8
12632256
10
-0.058000
20
1.477000
40
0.048000
41
1.041667
50
90.000000
71
2
1
R3
0
POLYLINE
8
0
66
1
40
0.007000
41
0.007000
0
VERTEX
8
0
10
-0.478000
20
1.446000
0
VERTEX
8
0
10
-0.478000
20
1.407000
0
SEQEND
8
0
0
POLYLINE
8
0
66
1
40
0.007000
41
0.007000
0
VERTEX
8
0
10
-0.549000
20
1.446000
0
VERTEX
8
0
10
-0.549000
20
1.407000
0
SEQEND
8
0
0
TEXT
8
12632256
10
-0.559000
20
1.477000
40
0.048000
41
1.041667
50
90.000000
71
2
1
R4
0
POLYLINE
8
0
66
1
40
0.007000
41
0.007000
0
VERTEX
8
0
10
-0.832000
20
1.423000
0
VERTEX
8
0
10
-0.832000
20
1.383000
0
SEQEND
8
0
0
POLYLINE
8
0
66
1
40
0.007000
41
0.007000
0
VERTEX
8
0
10
-0.903000
20
1.423000
0
VERTEX
8
0
10
-0.903000
20
1.383000
0
SEQEND
8
0
0
TEXT
8
12632256
10
-0.913000
20
1.453000
40
0.048000
41
1.041667
50
90.000000
71
2
1
R5
0
POLYLINE
8
0
66
1
40
0.007000
41
0.007000
0
VERTEX
8
0
10
0.549000
20
1.092000
0
VERTEX
8
0
10
0.549000
20
1.131000
0
SEQEND
8
0
0
POLYLINE
8
0
66
1
40
0.007000
41
0.007000
0
VERTEX
8
0
10
0.620000
20
1.092000
0
VERTEX
8
0
10
0.620000
20
1.131000
0
SEQEND
8
0
0
TEXT
8
12632256
10
0.678000
20
1.162000
40
0.048000
41
1.041667
50
90.000000
71
2
1
R6
0
POLYLINE
8
0
66
1
40
0.007000
41
0.007000
0
VERTEX
8
0
10
0.187000
20
1.096000
0
VERTEX
8
0
10
0.187000
20
1.135000
0
SEQEND
8
0
0
POLYLINE
8
0
66
1
40
0.007000
41
0.007000
0
VERTEX
8
0
10
0.257000
20
1.096000
0
VERTEX
8
0
10
0.257000
20
1.135000
0
SEQEND
8
0
0
TEXT
8
12632256
10
0.315000
20
1.166000
40
0.048000
41
1.041667
50
90.000000
71
2
1
R7
0
POLYLINE
8
0
66
1
40
0.007000
41
0.007000
0
VERTEX
8
0
10
-0.210000
20
1.096000
0
VERTEX
8
0
10
-0.210000
20
1.135000
0
SEQEND
8
0
0
POLYLINE
8
0
66
1
40
0.007000
41
0.007000
0
VERTEX
8
0
10
-0.139000
20
1.096000
0
VERTEX
8
0
10
-0.139000
20
1.135000
0
SEQEND
8
0
0
TEXT
8
12632256
10
-0.081000
20
1.166000
40
0.048000
41
1.041667
50
90.000000
71
2
1
R8
0
POLYLINE
8
0
66
1
40
0.007000
41
0.007000
0
VERTEX
8
0
10
-0.588000
20
1.104000
0
VERTEX
8
0
10
-0.588000
20
1.143000
0
SEQEND
8
0
0
POLYLINE
8
0
66
1
40
0.007000
41
0.007000
0
VERTEX
8
0
10
-0.517000
20
1.104000
0
VERTEX
8
0
10
-0.517000
20
1.143000
0
SEQEND
8
0
0
TEXT
8
12632256
10
-0.459000
20
1.174000
40
0.048000
41
1.041667
50
90.000000
71
2
1
R9
0
POLYLINE
8
0
66
1
40
0.007000
41
0.007000
0
VERTEX
8
0
10
-0.938000
20
1.108000
0
VERTEX
8
0
10
-0.938000
20
1.147000
0
SEQEND
8
0
0
POLYLINE
8
0
66
1
40
0.007000
41
0.007000
0
VERTEX
8
0
10
-0.868000
20
1.108000
0
VERTEX
8
0
10
-0.868000
20
1.147000
0
SEQEND
8
0
0
TEXT
8
12632256
10
-0.810000
20
1.202000
40
0.048000
41
1.041667
50
90.000000
71
2
1
R10
0
POLYLINE
8
0
66
1
40
0.008000
41
0.008000
0
VERTEX
8
0
10
-0.545000
20
-2.066000
0
VERTEX
8
0
10
0.635000
20
-2.066000
0
VERTEX
8
0
10
0.635000
20
1.082000
0
VERTEX
8
0
10
1.029000
20
1.082000
0
VERTEX
8
0
10
0.045000
20
2.066000
0
SEQEND
8
0
0
POLYLINE
8
0
66
1
40
0.008000
41
0.008000
0
VERTEX
8
0
10
-0.545000
20
-2.066000
0
VERTEX
8
0
10
-0.545000
20
1.082000
0
VERTEX
8
0
10
-0.938000
20
1.082000
0
VERTEX
8
0
10
0.045000
20
2.066000
0
SEQEND
8
0
0
POLYLINE
8
0
66
1
40
0.008000
41
0.008000
0
VERTEX
8
0
10
0.045000
20
-2.066000
0
VERTEX
8
0
10
0.045000
20
2.066000
0
SEQEND
8
0
0
POLYLINE
8
0
66
1
40
0.008000
41
0.008000
0
VERTEX
8
0
10
0.881000
20
1.260000
0
VERTEX
8
0
10
0.681000
20
1.260000
0
VERTEX
8
0
10
0.681000
20
1.090000
0
VERTEX
8
0
10
0.881000
20
1.090000
0
VERTEX
8
0
10
0.881000
20
1.260000
0
SEQEND
8
0
0
POLYLINE
8
0
66
1
40
0.008000
41
0.008000
0
VERTEX
8
0
10
-0.791000
20
1.175000
0
VERTEX
8
0
10
0.881000
20
1.175000
0
SEQEND
8
0
0
POLYLINE
8
0
66
1
40
0.008000
41
0.008000
0
VERTEX
8
0
10
-0.791000
20
1.260000
0
VERTEX
8
0
10
-0.590000
20
1.260000
0
VERTEX
8
0
10
-0.590000
20
1.090000
0
VERTEX
8
0
10
-0.791000
20
1.090000
0
VERTEX
8
0
10
-0.791000
20
1.260000
0
SEQEND
8
0
0
POLYLINE
8
0
66
1
40
0.008000
41
0.008000
0
VERTEX
8
0
10
-0.423000
20
1.260000
0
VERTEX
8
0
10
-0.222000
20
1.260000
0
VERTEX
8
0
10
-0.222000
20
1.090000
0
VERTEX
8
0
10
-0.423000
20
1.090000
0
VERTEX
8
0
10
-0.423000
20
1.260000
0
SEQEND
8
0
0
POLYLINE
8
0
66
1
40
0.008000
41
0.008000
0
VERTEX
8
0
10
-0.055000
20
1.260000
0
VERTEX
8
0
10
0.145000
20
1.260000
0
VERTEX
8
0
10
0.145000
20
1.090000
0
VERTEX
8
0
10
-0.055000
20
1.090000
0
VERTEX
8
0
10
-0.055000
20
1.260000
0
SEQEND
8
0
0
POLYLINE
8
0
66
1
40
0.008000
41
0.008000
0
VERTEX
8
0
10
0.312000
20
1.260000
0
VERTEX
8
0
10
0.513000
20
1.260000
0
VERTEX
8
0
10
0.513000
20
1.090000
0
VERTEX
8
0
10
0.312000
20
1.090000
0
VERTEX
8
0
10
0.312000
20
1.260000
0
SEQEND
8
0
0
CIRCLE
8
12632256
10
0.407000
20
1.171000
40
0.189000
0
POLYLINE
8
0
66
1
40
0.008000
41
0.008000
0
VERTEX
8
0
10
0.537000
20
1.241000
0
VERTEX
8
0
10
0.498000
20
1.241000
0
SEQEND
8
0
0
POLYLINE
8
0
66
1
40
0.008000
41
0.008000
0
VERTEX
8
0
10
0.517000
20
1.261000
0
VERTEX
8
0
10
0.517000
20
1.222000
0
SEQEND
8
0
0
TEXT
8
12632256
10
0.655000
20
1.121000
40
0.048000
41
1.041667
50
90.000000
1
C6
0
CIRCLE
8
12632256
10
0.037000
20
1.175000
40
0.189000
0
POLYLINE
8
0
66
1
40
0.008000
41
0.008000
0
VERTEX
8
0
10
0.167000
20
1.245000
0
VERTEX
8
0
10
0.127000
20
1.245000
0
SEQEND
8
0
0
POLYLINE
8
0
66
1
40
0.008000
41
0.008000
0
VERTEX
8
0
10
0.147000
20
1.265000
0
VERTEX
8
0
10
0.147000
20
1.225000
0
SEQEND
8
0
0
TEXT
8
12632256
10
0.285000
20
1.125000
40
0.048000
41
1.041667
50
90.000000
1
C7
0
CIRCLE
8
12632256
10
-0.340000
20
1.171000
40
0.189000
0
POLYLINE
8
0
66
1
40
0.008000
41
0.008000
0
VERTEX
8
0
10
-0.210000
20
1.241000
0
VERTEX
8
0
10
-0.250000
20
1.241000
0
SEQEND
8
0
0
POLYLINE
8
0
66
1
40
0.008000
41
0.008000
0
VERTEX
8
0
10
-0.230000
20
1.261000
0
VERTEX
8
0
10
-0.230000
20
1.222000
0
SEQEND
8
0
0
TEXT
8
12632256
10
-0.092000
20
1.121000
40
0.048000
41
1.041667
50
90.000000
1
C8
0
CIRCLE
8
12632256
10
-0.702000
20
1.175000
40
0.189000
0
POLYLINE
8
0
66
1
40
0.008000
41
0.008000
0
VERTEX
8
0
10
-0.572000
20
1.245000
0
VERTEX
8
0
10
-0.612000
20
1.245000
0
SEQEND
8
0
0
POLYLINE
8
0
66
1
40
0.008000
41
0.008000
0
VERTEX
8
0
10
-0.592000
20
1.265000
0
VERTEX
8
0
10
-0.592000
20
1.225000
0
SEQEND
8
0
0
TEXT
8
12632256
10
-0.454000
20
1.125000
40
0.048000
41
1.041667
50
90.000000
1
C9
0
CIRCLE
8
12632256
10
0.781000
20
1.175000
40
0.189000
0
POLYLINE
8
0
66
1
40
0.008000
41
0.008000
0
VERTEX
8
0
10
0.911000
20
1.245000
0
VERTEX
8
0
10
0.872000
20
1.245000
0
SEQEND
8
0
0
POLYLINE
8
0
66
1
40
0.008000
41
0.008000
0
VERTEX
8
0
10
0.891000
20
1.265000
0
VERTEX
8
0
10
0.891000
20
1.225000
0
SEQEND
8
0
0
TEXT
8
12632256
10
1.029000
20
1.100000
40
0.048000
41
1.041667
50
90.000000
1
C11
0
POLYLINE
8
0
66
1
40
0.008000
41
0.008000
0
VERTEX
8
0
10
-1.214000
20
0.669000
0
VERTEX
8
0
10
1.214000
20
0.669000
0
VERTEX
8
0
10
1.214000
20
1.566000
0
VERTEX
8
0
10
-1.214000
20
1.566000
0
VERTEX
8
0
10
-1.214000
20
0.669000
0
SEQEND
8
0
0
ENDSEC
0
EOF

